<?xml version="1.0" encoding="UTF-8"?>
<svg xmlns="http://www.w3.org/2000/svg" xmlns:xlink="http://www.w3.org/1999/xlink" width="384px" height="384px" viewBox="0 0 384 384" version="1.1">
<g id="surface1">
<path style=" stroke:none;fill-rule:nonzero;fill:rgb(10.196079%,10.196079%,10.196079%);fill-opacity:1;" d="M 72 0 L 312 0 C 351.765625 0 384 32.234375 384 72 L 384 312 C 384 351.765625 351.765625 384 312 384 L 72 384 C 32.234375 384 0 351.765625 0 312 L 0 72 C 0 32.234375 32.234375 0 72 0 Z M 72 0 "/>
<path style=" stroke:none;fill-rule:nonzero;fill:rgb(96.862745%,57.647061%,11.764706%);fill-opacity:1;" d="M 108.75 42 L 153.75 42 L 153.75 342 L 108.75 342 Z M 108.75 42 "/>
<path style=" stroke:none;fill-rule:nonzero;fill:rgb(96.862745%,57.647061%,11.764706%);fill-opacity:1;" d="M 75 192 L 127.5 158.25 L 270 42 L 270 98.25 L 161.25 192 L 270 285.75 L 270 342 L 127.5 225.75 Z M 75 192 "/>
</g>
</svg>
