<?xml version="1.0" encoding="UTF-8"?>
<svg xmlns="http://www.w3.org/2000/svg" xmlns:xlink="http://www.w3.org/1999/xlink" width="96px" height="96px" viewBox="0 0 96 96" version="1.1">
<g id="surface1">
<path style=" stroke:none;fill-rule:nonzero;fill:rgb(10.196079%,10.196079%,10.196079%);fill-opacity:1;" d="M 18 0 L 78 0 C 87.941406 0 96 8.058594 96 18 L 96 78 C 96 87.941406 87.941406 96 78 96 L 18 96 C 8.058594 96 0 87.941406 0 78 L 0 18 C 0 8.058594 8.058594 0 18 0 Z M 18 0 "/>
<path style=" stroke:none;fill-rule:nonzero;fill:rgb(96.862745%,57.647061%,11.764706%);fill-opacity:1;" d="M 27.1875 10.5 L 38.4375 10.5 L 38.4375 85.5 L 27.1875 85.5 Z M 27.1875 10.5 "/>
<path style=" stroke:none;fill-rule:nonzero;fill:rgb(96.862745%,57.647061%,11.764706%);fill-opacity:1;" d="M 18.75 48 L 31.875 39.5625 L 67.5 10.5 L 67.5 24.5625 L 40.3125 48 L 67.5 71.4375 L 67.5 85.5 L 31.875 56.4375 Z M 18.75 48 "/>
</g>
</svg>
